<svg xmlns="http://www.w3.org/2000/svg" xmlns:xlink="http://www.w3.org/1999/xlink" version="1.1" x="0px" y="0px" viewBox="0 0 100 100" enable-background="new 0 0 100 100" xml:space="preserve">
    <ellipse fill="#FFFFFF" cx="38.534" cy="22.865" rx="16.747" ry="17.756"/>
    <g>
        <path fill="#FFFFFF" d="M39.015,75.199v-6.911l8.233-2.995l1.942-4.763l-3.926-7.854l4.809-4.887l7.906,3.794l4.69-1.973   l1.451-4.515c-0.147-0.283-0.298-0.552-0.451-0.805c-1.703-2.819-5.168-5.155-10.753-6.586c-3.646,3.974-8.743,6.441-14.384,6.441   c-5.64,0-10.737-2.467-14.383-6.44c-5.583,1.429-9.048,3.766-10.751,6.585c-2.465,4.082-4.22,12.186-4.9,18.092   c-0.173,1.018-0.384,3.824-0.335,4.247c1.087,9.217,15.101,16.531,29.516,16.784c0.284,0.006,0.569,0.007,0.854,0.007   c0.286,0,0.57-0.003,0.854-0.007c3.238-0.043,6.496-0.474,9.608-1.22l-1.738-4.26L39.015,75.199z"/>
        <path fill="#FFFFFF" d="M64.122,45.094"/>
    </g>
    <path fill="#FFFFFF" d="M91.842,74.135v-5.301l-6.325-2.097l-1.491-3.656l2.866-6.159L83.2,53.173l-0.691,0.356l-0.143,0.074  l-5.097,2.63l-3.6-1.514l-2.263-6.416h-5.219l-2.065,6.425l-3.598,1.514l-6.066-2.911l-3.69,3.749l3.012,6.026l-1.49,3.654  l-6.317,2.298v5.303l6.325,2.097l1.491,3.655l-2.866,6.16l3.689,3.75l5.933-3.06l3.599,1.514l2.262,6.414h5.219l2.067-6.424  l3.599-1.514l6.065,2.912l3.692-3.75l-3.012-6.025l1.491-3.656L91.842,74.135z M68.908,80.607c-4.899,0-8.87-4.034-8.87-9.01  c0-4.976,3.972-9.01,8.87-9.01c4.899,0,8.869,4.034,8.869,9.01C77.777,76.573,73.807,80.607,68.908,80.607z"/>
</svg>