<svg xmlns="http://www.w3.org/2000/svg" width="1920" height="1080"><path d="M-2,1324L-218,1314L300,1344Z" fill="#95b1d9" stroke="#95b1d9" stroke-width="1.51"/><path d="M619,1303L300,1344L1053,1295Z" fill="#709fcf" stroke="#709fcf" stroke-width="1.51"/><path d="M1164,1278L1053,1295L1323,1276Z" fill="#468dc4" stroke="#468dc4" stroke-width="1.51"/><path d="M-207,-249L532,-245L1389,-265Z" fill="#d7e7f5" stroke="#d7e7f5" stroke-width="1.51"/><path d="M532,-245L747,-243L1389,-265Z" fill="#bad7ec" stroke="#bad7ec" stroke-width="1.51"/><path d="M747,-243L1004,-231L1389,-265Z" fill="#b1d1e9" stroke="#b1d1e9" stroke-width="1.51"/><path d="M1389,-265L1610,-206L1769,-209Z" fill="#a2c3e2" stroke="#a2c3e2" stroke-width="1.51"/><path d="M1053,1295L300,1344L1886,1313Z" fill="#498ec5" stroke="#498ec5" stroke-width="1.51"/><path d="M1616,1256L1453,1257L1886,1313Z" fill="#3582be" stroke="#3582be" stroke-width="1.51"/><path d="M1453,1257L1323,1276L1886,1313Z" fill="#3685bf" stroke="#3685bf" stroke-width="1.51"/><path d="M1323,1276L1053,1295L1886,1313Z" fill="#3c87c1" stroke="#3c87c1" stroke-width="1.51"/><path d="M1389,-265L1769,-209L2058,-182Z" fill="#9fbee0" stroke="#9fbee0" stroke-width="1.51"/><path d="M1769,-209L1940,-177L2058,-182Z" fill="#9bb8dd" stroke="#9bb8dd" stroke-width="1.51"/><path d="M1886,1313L300,1344L2080,1318Z" fill="#3b86c1" stroke="#3b86c1" stroke-width="1.51"/><path d="M2039,653L1990,696L2103,801Z" fill="#458cc4" stroke="#458cc4" stroke-width="1.51"/><path d="M1949,1187L2080,1318L2114,1124Z" fill="#2c7aba" stroke="#2c7aba" stroke-width="1.51"/><path d="M2103,801L1953,855L2126,997Z" fill="#3b86c1" stroke="#3b86c1" stroke-width="1.51"/><path d="M1928,1045L2114,1124L2126,997Z" fill="#3280bd" stroke="#3280bd" stroke-width="1.51"/><path d="M2040,350L1915,565L2140,529Z" fill="#5996ca" stroke="#5996ca" stroke-width="1.51"/><path d="M1915,565L2039,653L2140,529Z" fill="#4c91c7" stroke="#4c91c7" stroke-width="1.51"/><path d="M2055,56L2043,241L2140,529Z" fill="#79a3d1" stroke="#79a3d1" stroke-width="1.51"/><path d="M2043,241L2040,350L2140,529Z" fill="#6a9dcd" stroke="#6a9dcd" stroke-width="1.51"/><path d="M2039,653L2103,801L2140,529Z" fill="#478dc4" stroke="#478dc4" stroke-width="1.51"/><path d="M2061,-24L2055,56L2140,529Z" fill="#86aad5" stroke="#86aad5" stroke-width="1.51"/><path d="M2103,801L2126,997L2140,529Z" fill="#4088c2" stroke="#4088c2" stroke-width="1.51"/><path d="M2058,-182L2061,-24L2140,529Z" fill="#8eaed7" stroke="#8eaed7" stroke-width="1.51"/><path d="M1970,214L2043,241L2055,56Z" fill="#89add7" stroke="#89add7" stroke-width="1.51"/><path d="M1953,855L1928,1045L2126,997Z" fill="#3785bf" stroke="#3785bf" stroke-width="1.51"/><path d="M1928,1045L1949,1187L2114,1124Z" fill="#317fbd" stroke="#317fbd" stroke-width="1.51"/><path d="M2058,-182L1967,-40L2061,-24Z" fill="#96b3da" stroke="#96b3da" stroke-width="1.51"/><path d="M1990,696L1953,855L2103,801Z" fill="#418bc3" stroke="#418bc3" stroke-width="1.51"/><path d="M1906,338L1915,565L2040,350Z" fill="#659dce" stroke="#659dce" stroke-width="1.51"/><path d="M1940,-177L1967,-40L2058,-182Z" fill="#98b5db" stroke="#98b5db" stroke-width="1.51"/><path d="M1949,1187L1886,1313L2080,1318Z" fill="#2c79ba" stroke="#2c79ba" stroke-width="1.51"/><path d="M1970,214L2040,350L2043,241Z" fill="#7ba6d3" stroke="#7ba6d3" stroke-width="1.51"/><path d="M1889,122L1970,214L2055,56Z" fill="#8fb1d9" stroke="#8fb1d9" stroke-width="1.51"/><path d="M1967,-40L2055,56L2061,-24Z" fill="#93b2da" stroke="#93b2da" stroke-width="1.51"/><path d="M1970,214L1906,338L2040,350Z" fill="#77a5d2" stroke="#77a5d2" stroke-width="1.51"/><path d="M1967,-40L1889,122L2055,56Z" fill="#92b3da" stroke="#92b3da" stroke-width="1.51"/><path d="M1915,565L1990,696L2039,653Z" fill="#4a91c6" stroke="#4a91c6" stroke-width="1.51"/><path d="M1827,1018L1928,1045L1953,855Z" fill="#3987c1" stroke="#3987c1" stroke-width="1.51"/><path d="M1779,726L1953,855L1990,696Z" fill="#458fc5" stroke="#458fc5" stroke-width="1.51"/><path d="M1915,565L1779,726L1990,696Z" fill="#4b92c7" stroke="#4b92c7" stroke-width="1.51"/><path d="M830,1278L619,1303L1053,1295Z" fill="#5d98cb" stroke="#5d98cb" stroke-width="1.51"/><path d="M1906,338L1758,542L1915,565Z" fill="#5c9bcd" stroke="#5c9bcd" stroke-width="1.51"/><path d="M1791,82L1889,122L1967,-40Z" fill="#94b5db" stroke="#94b5db" stroke-width="1.51"/><path d="M1796,-87L1791,82L1967,-40Z" fill="#97b8dc" stroke="#97b8dc" stroke-width="1.51"/><path d="M1940,-177L1796,-87L1967,-40Z" fill="#98b8dc" stroke="#98b8dc" stroke-width="1.51"/><path d="M1802,271L1906,338L1970,214Z" fill="#7da9d4" stroke="#7da9d4" stroke-width="1.51"/><path d="M1889,122L1802,271L1970,214Z" fill="#87afd7" stroke="#87afd7" stroke-width="1.51"/><path d="M1755,869L1827,1018L1953,855Z" fill="#3d8bc3" stroke="#3d8bc3" stroke-width="1.51"/><path d="M1928,1045L1827,1018L1949,1187Z" fill="#3583be" stroke="#3583be" stroke-width="1.51"/><path d="M1827,1018L1745,1192L1949,1187Z" fill="#3582be" stroke="#3582be" stroke-width="1.51"/><path d="M1745,1192L1812,1254L1949,1187Z" fill="#3280bd" stroke="#3280bd" stroke-width="1.51"/><path d="M1812,1254L1886,1313L1949,1187Z" fill="#2f7dbc" stroke="#2f7dbc" stroke-width="1.51"/><path d="M1779,726L1755,869L1953,855Z" fill="#448fc5" stroke="#448fc5" stroke-width="1.51"/><path d="M1731,343L1758,542L1906,338Z" fill="#6aa2d0" stroke="#6aa2d0" stroke-width="1.51"/><path d="M1769,-209L1796,-87L1940,-177Z" fill="#9bbbde" stroke="#9bbbde" stroke-width="1.51"/><path d="M1812,1254L1616,1256L1886,1313Z" fill="#317fbd" stroke="#317fbd" stroke-width="1.51"/><path d="M1758,542L1779,726L1915,565Z" fill="#4f96c9" stroke="#4f96c9" stroke-width="1.51"/><path d="M1802,271L1731,343L1906,338Z" fill="#77a9d4" stroke="#77a9d4" stroke-width="1.51"/><path d="M1791,82L1802,271L1889,122Z" fill="#8eb3da" stroke="#8eb3da" stroke-width="1.51"/><path d="M-207,-249L83,-208L532,-245Z" fill="#eef5fc" stroke="#eef5fc" stroke-width="1.51"/><path d="M1648,-22L1791,82L1796,-87Z" fill="#98bade" stroke="#98bade" stroke-width="1.51"/><path d="M1791,82L1640,238L1802,271Z" fill="#8ab3d9" stroke="#8ab3d9" stroke-width="1.51"/><path d="M1755,869L1621,1009L1827,1018Z" fill="#3e8cc3" stroke="#3e8cc3" stroke-width="1.51"/><path d="M1621,1009L1680,1133L1827,1018Z" fill="#3b8ac2" stroke="#3b8ac2" stroke-width="1.51"/><path d="M1680,1133L1745,1192L1827,1018Z" fill="#3886c0" stroke="#3886c0" stroke-width="1.51"/><path d="M1680,854L1755,869L1779,726Z" fill="#4691c6" stroke="#4691c6" stroke-width="1.51"/><path d="M1758,542L1598,664L1779,726Z" fill="#5098ca" stroke="#5098ca" stroke-width="1.51"/><path d="M1745,1192L1616,1256L1812,1254Z" fill="#3482be" stroke="#3482be" stroke-width="1.51"/><path d="M1769,-209L1610,-206L1796,-87Z" fill="#9ebedf" stroke="#9ebedf" stroke-width="1.51"/><path d="M1610,-206L1648,-22L1796,-87Z" fill="#9cbedf" stroke="#9cbedf" stroke-width="1.51"/><path d="M1640,238L1731,343L1802,271Z" fill="#7eadd6" stroke="#7eadd6" stroke-width="1.51"/><path d="M1680,854L1621,1009L1755,869Z" fill="#4290c5" stroke="#4290c5" stroke-width="1.51"/><path d="M1596,37L1640,238L1791,82Z" fill="#96badd" stroke="#96badd" stroke-width="1.51"/><path d="M1580,359L1600,559L1731,343Z" fill="#6aa6d2" stroke="#6aa6d2" stroke-width="1.51"/><path d="M1731,343L1600,559L1758,542Z" fill="#5fa0ce" stroke="#5fa0ce" stroke-width="1.51"/><path d="M1648,-22L1596,37L1791,82Z" fill="#98bcde" stroke="#98bcde" stroke-width="1.51"/><path d="M1600,559L1598,664L1758,542Z" fill="#549ccb" stroke="#549ccb" stroke-width="1.51"/><path d="M1598,664L1680,854L1779,726Z" fill="#4b95c8" stroke="#4b95c8" stroke-width="1.51"/><path d="M1596,37L1538,128L1640,238Z" fill="#96bcde" stroke="#96bcde" stroke-width="1.51"/><path d="M1680,1133L1616,1256L1745,1192Z" fill="#3785bf" stroke="#3785bf" stroke-width="1.51"/><path d="M1640,238L1580,359L1731,343Z" fill="#7badd6" stroke="#7badd6" stroke-width="1.51"/><path d="M1431,713L1429,869L1598,664Z" fill="#509acb" stroke="#509acb" stroke-width="1.51"/><path d="M1598,664L1429,869L1680,854Z" fill="#4b97c9" stroke="#4b97c9" stroke-width="1.51"/><path d="M1429,869L1530,938L1680,854Z" fill="#4694c7" stroke="#4694c7" stroke-width="1.51"/><path d="M1530,938L1621,1009L1680,854Z" fill="#4291c6" stroke="#4291c6" stroke-width="1.51"/><path d="M1621,1009L1538,1179L1680,1133Z" fill="#3c8ac3" stroke="#3c8ac3" stroke-width="1.51"/><path d="M1538,1179L1616,1256L1680,1133Z" fill="#3987c0" stroke="#3987c0" stroke-width="1.51"/><path d="M1580,359L1493,405L1600,559Z" fill="#68a7d2" stroke="#68a7d2" stroke-width="1.51"/><path d="M1389,-265L1478,-180L1610,-206Z" fill="#a4c5e3" stroke="#a4c5e3" stroke-width="1.51"/><path d="M1478,-180L1450,-116L1610,-206Z" fill="#a2c4e2" stroke="#a2c4e2" stroke-width="1.51"/><path d="M1610,-206L1450,-116L1648,-22Z" fill="#9fc1e1" stroke="#9fc1e1" stroke-width="1.51"/><path d="M1450,-116L1596,37L1648,-22Z" fill="#9dc0e0" stroke="#9dc0e0" stroke-width="1.51"/><path d="M1457,202L1580,359L1640,238Z" fill="#84b3d9" stroke="#84b3d9" stroke-width="1.51"/><path d="M1538,128L1457,202L1640,238Z" fill="#8fbadc" stroke="#8fbadc" stroke-width="1.51"/><path d="M1530,938L1375,1086L1538,1179Z" fill="#418fc5" stroke="#418fc5" stroke-width="1.51"/><path d="M1493,405L1513,580L1600,559Z" fill="#5da2d0" stroke="#5da2d0" stroke-width="1.51"/><path d="M1513,580L1598,664L1600,559Z" fill="#549dcd" stroke="#549dcd" stroke-width="1.51"/><path d="M1530,938L1538,1179L1621,1009Z" fill="#3f8ec4" stroke="#3f8ec4" stroke-width="1.51"/><path d="M1538,1179L1453,1257L1616,1256Z" fill="#3a87c1" stroke="#3a87c1" stroke-width="1.51"/><path d="M1457,202L1493,405L1580,359Z" fill="#7db1d7" stroke="#7db1d7" stroke-width="1.51"/><path d="M1513,580L1431,713L1598,664Z" fill="#549dcc" stroke="#549dcc" stroke-width="1.51"/><path d="M1450,-116L1538,128L1596,37Z" fill="#9cc0e0" stroke="#9cc0e0" stroke-width="1.51"/><path d="M1004,-231L1161,-199L1389,-265Z" fill="#adcde7" stroke="#adcde7" stroke-width="1.51"/><path d="M1450,-116L1374,120L1538,128Z" fill="#9dc2e1" stroke="#9dc2e1" stroke-width="1.51"/><path d="M1333,-76L1374,120L1450,-116Z" fill="#a1c5e3" stroke="#a1c5e3" stroke-width="1.51"/><path d="M1457,202L1380,384L1493,405Z" fill="#7db2d8" stroke="#7db2d8" stroke-width="1.51"/><path d="M1493,405L1368,539L1513,580Z" fill="#61a5d1" stroke="#61a5d1" stroke-width="1.51"/><path d="M1348,1011L1375,1086L1530,938Z" fill="#4693c7" stroke="#4693c7" stroke-width="1.51"/><path d="M1374,120L1457,202L1538,128Z" fill="#97bfdf" stroke="#97bfdf" stroke-width="1.51"/><path d="M1375,1086L1453,1257L1538,1179Z" fill="#3f8bc3" stroke="#3f8bc3" stroke-width="1.51"/><path d="M1348,242L1380,384L1457,202Z" fill="#87b7db" stroke="#87b7db" stroke-width="1.51"/><path d="M1429,869L1348,1011L1530,938Z" fill="#4895c8" stroke="#4895c8" stroke-width="1.51"/><path d="M1380,384L1368,539L1493,405Z" fill="#6daad4" stroke="#6daad4" stroke-width="1.51"/><path d="M1353,655L1431,713L1513,580Z" fill="#579fcd" stroke="#579fcd" stroke-width="1.51"/><path d="M1368,539L1353,655L1513,580Z" fill="#5aa1cf" stroke="#5aa1cf" stroke-width="1.51"/><path d="M1375,1086L1323,1276L1453,1257Z" fill="#418cc4" stroke="#418cc4" stroke-width="1.51"/><path d="M1389,-265L1450,-116L1478,-180Z" fill="#a5c6e3" stroke="#a5c6e3" stroke-width="1.51"/><path d="M1286,844L1429,869L1431,713Z" fill="#519bcc" stroke="#519bcc" stroke-width="1.51"/><path d="M1389,-265L1333,-76L1450,-116Z" fill="#a5c7e4" stroke="#a5c7e4" stroke-width="1.51"/><path d="M1374,120L1348,242L1457,202Z" fill="#93bdde" stroke="#93bdde" stroke-width="1.51"/><path d="M1286,844L1348,1011L1429,869Z" fill="#4c98ca" stroke="#4c98ca" stroke-width="1.51"/><path d="M1353,655L1286,844L1431,713Z" fill="#559dcc" stroke="#559dcc" stroke-width="1.51"/><path d="M1333,-76L1184,108L1374,120Z" fill="#a1c5e3" stroke="#a1c5e3" stroke-width="1.51"/><path d="M1233,1134L1323,1276L1375,1086Z" fill="#458fc5" stroke="#458fc5" stroke-width="1.51"/><path d="M1348,242L1197,354L1380,384Z" fill="#81b5da" stroke="#81b5da" stroke-width="1.51"/><path d="M1164,494L1368,539L1380,384Z" fill="#6cabd4" stroke="#6cabd4" stroke-width="1.51"/><path d="M1197,354L1164,494L1380,384Z" fill="#77b0d7" stroke="#77b0d7" stroke-width="1.51"/><path d="M1161,-199L1333,-76L1389,-265Z" fill="#a8cae5" stroke="#a8cae5" stroke-width="1.51"/><path d="M1176,676L1286,844L1353,655Z" fill="#59a0cf" stroke="#59a0cf" stroke-width="1.51"/><path d="M1184,108L1348,242L1374,120Z" fill="#9ac2e1" stroke="#9ac2e1" stroke-width="1.51"/><path d="M1184,108L1168,203L1348,242Z" fill="#98c1e1" stroke="#98c1e1" stroke-width="1.51"/><path d="M1176,676L1353,655L1368,539Z" fill="#5ca3d0" stroke="#5ca3d0" stroke-width="1.51"/><path d="M1348,1011L1233,1134L1375,1086Z" fill="#4892c7" stroke="#4892c7" stroke-width="1.51"/><path d="M1164,494L1176,676L1368,539Z" fill="#61a6d2" stroke="#61a6d2" stroke-width="1.51"/><path d="M1161,-199L1174,-95L1333,-76Z" fill="#a8cbe6" stroke="#a8cbe6" stroke-width="1.51"/><path d="M1174,-95L1184,108L1333,-76Z" fill="#a5c8e5" stroke="#a5c8e5" stroke-width="1.51"/><path d="M1286,844L1130,994L1348,1011Z" fill="#4d99ca" stroke="#4d99ca" stroke-width="1.51"/><path d="M1130,994L1233,1134L1348,1011Z" fill="#4b95c8" stroke="#4b95c8" stroke-width="1.51"/><path d="M1168,203L1197,354L1348,242Z" fill="#8dbbde" stroke="#8dbbde" stroke-width="1.51"/><path d="M1147,856L1130,994L1286,844Z" fill="#539ccc" stroke="#539ccc" stroke-width="1.51"/><path d="M1233,1134L1164,1278L1323,1276Z" fill="#458ec5" stroke="#458ec5" stroke-width="1.51"/><path d="M1176,676L1147,856L1286,844Z" fill="#58a0ce" stroke="#58a0ce" stroke-width="1.51"/><path d="M1164,494L1067,590L1176,676Z" fill="#64a8d2" stroke="#64a8d2" stroke-width="1.51"/><path d="M1174,-95L1014,-52L1184,108Z" fill="#a8cae6" stroke="#a8cae6" stroke-width="1.51"/><path d="M1002,1194L1164,1278L1233,1134Z" fill="#4a92c7" stroke="#4a92c7" stroke-width="1.51"/><path d="M1130,994L1002,1194L1233,1134Z" fill="#4e95c9" stroke="#4e95c9" stroke-width="1.51"/><path d="M1071,966L1130,994L1147,856Z" fill="#539dcd" stroke="#539dcd" stroke-width="1.51"/><path d="M1021,786L1147,856L1176,676Z" fill="#5ba2d0" stroke="#5ba2d0" stroke-width="1.51"/><path d="M1009,728L1021,786L1176,676Z" fill="#5fa5d1" stroke="#5fa5d1" stroke-width="1.51"/><path d="M1014,-52L1008,124L1184,108Z" fill="#a7cbe6" stroke="#a7cbe6" stroke-width="1.51"/><path d="M1040,370L1164,494L1197,354Z" fill="#7bb3d9" stroke="#7bb3d9" stroke-width="1.51"/><path d="M1168,203L1084,231L1197,354Z" fill="#90bedf" stroke="#90bedf" stroke-width="1.51"/><path d="M1084,231L1040,370L1197,354Z" fill="#89badd" stroke="#89badd" stroke-width="1.51"/><path d="M1002,1194L1053,1295L1164,1278Z" fill="#4b91c7" stroke="#4b91c7" stroke-width="1.51"/><path d="M1084,231L1168,203L1184,108Z" fill="#9bc4e2" stroke="#9bc4e2" stroke-width="1.51"/><path d="M1008,124L1084,231L1184,108Z" fill="#a0c7e4" stroke="#a0c7e4" stroke-width="1.51"/><path d="M1161,-199L1014,-52L1174,-95Z" fill="#abcde7" stroke="#abcde7" stroke-width="1.51"/><path d="M1067,590L1009,728L1176,676Z" fill="#62a6d2" stroke="#62a6d2" stroke-width="1.51"/><path d="M1004,-231L1014,-52L1161,-199Z" fill="#aecfe8" stroke="#aecfe8" stroke-width="1.51"/><path d="M1071,966L1002,1194L1130,994Z" fill="#5199cb" stroke="#5199cb" stroke-width="1.51"/><path d="M1040,370L1067,590L1164,494Z" fill="#70afd7" stroke="#70afd7" stroke-width="1.51"/><path d="M1021,786L1071,966L1147,856Z" fill="#58a0ce" stroke="#58a0ce" stroke-width="1.51"/><path d="M1040,370L899,526L1067,590Z" fill="#71b0d7" stroke="#71b0d7" stroke-width="1.51"/><path d="M877,1003L1002,1194L1071,966Z" fill="#549bcc" stroke="#549bcc" stroke-width="1.51"/><path d="M1021,786L902,826L1071,966Z" fill="#5ba2d0" stroke="#5ba2d0" stroke-width="1.51"/><path d="M875,228L1040,370L1084,231Z" fill="#92c0e0" stroke="#92c0e0" stroke-width="1.51"/><path d="M1008,124L875,228L1084,231Z" fill="#9ec7e4" stroke="#9ec7e4" stroke-width="1.51"/><path d="M877,1003L884,1170L1002,1194Z" fill="#589bcc" stroke="#589bcc" stroke-width="1.51"/><path d="M747,-243L866,-191L1004,-231Z" fill="#bbd8ed" stroke="#bbd8ed" stroke-width="1.51"/><path d="M1004,-231L935,-58L1014,-52Z" fill="#afd0e9" stroke="#afd0e9" stroke-width="1.51"/><path d="M866,670L1009,728L1067,590Z" fill="#65a9d3" stroke="#65a9d3" stroke-width="1.51"/><path d="M902,826L877,1003L1071,966Z" fill="#5aa1cf" stroke="#5aa1cf" stroke-width="1.51"/><path d="M899,526L866,670L1067,590Z" fill="#6badd6" stroke="#6badd6" stroke-width="1.51"/><path d="M935,-58L1008,124L1014,-52Z" fill="#aacee7" stroke="#aacee7" stroke-width="1.51"/><path d="M850,432L899,526L1040,370Z" fill="#7eb6db" stroke="#7eb6db" stroke-width="1.51"/><path d="M1002,1194L830,1278L1053,1295Z" fill="#4f94c8" stroke="#4f94c8" stroke-width="1.51"/><path d="M866,-191L935,-58L1004,-231Z" fill="#b3d2ea" stroke="#b3d2ea" stroke-width="1.51"/><path d="M935,-58L857,119L1008,124Z" fill="#accfe8" stroke="#accfe8" stroke-width="1.51"/><path d="M875,228L850,432L1040,370Z" fill="#8dbedf" stroke="#8dbedf" stroke-width="1.51"/><path d="M884,1170L830,1278L1002,1194Z" fill="#5797ca" stroke="#5797ca" stroke-width="1.51"/><path d="M1009,728L902,826L1021,786Z" fill="#5fa5d1" stroke="#5fa5d1" stroke-width="1.51"/><path d="M857,119L875,228L1008,124Z" fill="#a8cde7" stroke="#a8cde7" stroke-width="1.51"/><path d="M866,670L902,826L1009,728Z" fill="#66a8d3" stroke="#66a8d3" stroke-width="1.51"/><path d="M381,1311L300,1344L619,1303Z" fill="#87aad5" stroke="#87aad5" stroke-width="1.51"/><path d="M788,373L850,432L875,228Z" fill="#95c2e2" stroke="#95c2e2" stroke-width="1.51"/><path d="M866,670L782,722L902,826Z" fill="#6eacd5" stroke="#6eacd5" stroke-width="1.51"/><path d="M746,47L857,119L935,-58Z" fill="#b5d4eb" stroke="#b5d4eb" stroke-width="1.51"/><path d="M750,-105L746,47L935,-58Z" fill="#bbd7ec" stroke="#bbd7ec" stroke-width="1.51"/><path d="M866,-191L750,-105L935,-58Z" fill="#b9d6ec" stroke="#b9d6ec" stroke-width="1.51"/><path d="M747,279L788,373L875,228Z" fill="#9fc8e5" stroke="#9fc8e5" stroke-width="1.51"/><path d="M877,1003L688,1163L884,1170Z" fill="#64a0cf" stroke="#64a0cf" stroke-width="1.51"/><path d="M765,544L866,670L899,526Z" fill="#76b2d8" stroke="#76b2d8" stroke-width="1.51"/><path d="M850,432L765,544L899,526Z" fill="#7fb7db" stroke="#7fb7db" stroke-width="1.51"/><path d="M782,722L728,808L902,826Z" fill="#72add5" stroke="#72add5" stroke-width="1.51"/><path d="M717,948L877,1003L902,826Z" fill="#68a7d2" stroke="#68a7d2" stroke-width="1.51"/><path d="M728,808L717,948L902,826Z" fill="#70acd5" stroke="#70acd5" stroke-width="1.51"/><path d="M708,1251L619,1303L830,1278Z" fill="#6b9ece" stroke="#6b9ece" stroke-width="1.51"/><path d="M717,948L688,1163L877,1003Z" fill="#6ca6d2" stroke="#6ca6d2" stroke-width="1.51"/><path d="M708,1251L830,1278L884,1170Z" fill="#629bcc" stroke="#629bcc" stroke-width="1.51"/><path d="M688,1163L708,1251L884,1170Z" fill="#689fcf" stroke="#689fcf" stroke-width="1.51"/><path d="M857,119L747,279L875,228Z" fill="#a9cde7" stroke="#a9cde7" stroke-width="1.51"/><path d="M747,-243L750,-105L866,-191Z" fill="#c1dbee" stroke="#c1dbee" stroke-width="1.51"/><path d="M765,544L782,722L866,670Z" fill="#77b2d9" stroke="#77b2d9" stroke-width="1.51"/><path d="M746,47L747,279L857,119Z" fill="#b5d4eb" stroke="#b5d4eb" stroke-width="1.51"/><path d="M788,373L765,544L850,432Z" fill="#8abcde" stroke="#8abcde" stroke-width="1.51"/><path d="M83,-208L255,-177L532,-245Z" fill="#eaf2fb" stroke="#eaf2fb" stroke-width="1.51"/><path d="M746,47L561,136L747,279Z" fill="#bdd8ed" stroke="#bdd8ed" stroke-width="1.51"/><path d="M582,403L579,536L765,544Z" fill="#93c1e1" stroke="#93c1e1" stroke-width="1.51"/><path d="M765,544L611,698L782,722Z" fill="#80b6db" stroke="#80b6db" stroke-width="1.51"/><path d="M582,403L765,544L788,373Z" fill="#94c1e1" stroke="#94c1e1" stroke-width="1.51"/><path d="M747,279L582,403L788,373Z" fill="#a1c8e5" stroke="#a1c8e5" stroke-width="1.51"/><path d="M611,698L728,808L782,722Z" fill="#7eb3d9" stroke="#7eb3d9" stroke-width="1.51"/><path d="M532,-245L542,-86L747,-243Z" fill="#d1e4f3" stroke="#d1e4f3" stroke-width="1.51"/><path d="M561,136L547,234L747,279Z" fill="#bbd7ed" stroke="#bbd7ed" stroke-width="1.51"/><path d="M747,-243L542,-86L750,-105Z" fill="#cae0f1" stroke="#cae0f1" stroke-width="1.51"/><path d="M542,-86L746,47L750,-105Z" fill="#c7def0" stroke="#c7def0" stroke-width="1.51"/><path d="M579,536L611,698L765,544Z" fill="#89bbde" stroke="#89bbde" stroke-width="1.51"/><path d="M549,944L688,1163L717,948Z" fill="#79acd5" stroke="#79acd5" stroke-width="1.51"/><path d="M610,807L717,948L728,808Z" fill="#7bb1d8" stroke="#7bb1d8" stroke-width="1.51"/><path d="M611,698L610,807L728,808Z" fill="#82b5da" stroke="#82b5da" stroke-width="1.51"/><path d="M542,-86L561,136L746,47Z" fill="#cae0f1" stroke="#cae0f1" stroke-width="1.51"/><path d="M547,234L582,403L747,279Z" fill="#afd0e8" stroke="#afd0e8" stroke-width="1.51"/><path d="M542,-86L487,-12L561,136Z" fill="#d2e4f4" stroke="#d2e4f4" stroke-width="1.51"/><path d="M610,807L549,944L717,948Z" fill="#7fb3d8" stroke="#7fb3d8" stroke-width="1.51"/><path d="M549,944L482,1138L688,1163Z" fill="#7faed6" stroke="#7faed6" stroke-width="1.51"/><path d="M482,1138L548,1193L688,1163Z" fill="#7daad4" stroke="#7daad4" stroke-width="1.51"/><path d="M548,1193L619,1303L688,1163Z" fill="#77a5d2" stroke="#77a5d2" stroke-width="1.51"/><path d="M688,1163L619,1303L708,1251Z" fill="#70a2d0" stroke="#70a2d0" stroke-width="1.51"/><path d="M181,1315L-2,1324L300,1344Z" fill="#92b0d9" stroke="#92b0d9" stroke-width="1.51"/><path d="M454,1019L482,1138L549,944Z" fill="#88b3da" stroke="#88b3da" stroke-width="1.51"/><path d="M450,708L610,807L611,698Z" fill="#8dbbdd" stroke="#8dbbdd" stroke-width="1.51"/><path d="M579,536L450,708L611,698Z" fill="#91bfe0" stroke="#91bfe0" stroke-width="1.51"/><path d="M548,1193L381,1311L619,1303Z" fill="#80a8d4" stroke="#80a8d4" stroke-width="1.51"/><path d="M461,519L450,708L579,536Z" fill="#99c4e2" stroke="#99c4e2" stroke-width="1.51"/><path d="M461,519L579,536L582,403Z" fill="#9ec7e4" stroke="#9ec7e4" stroke-width="1.51"/><path d="M402,801L549,944L610,807Z" fill="#8cb9dc" stroke="#8cb9dc" stroke-width="1.51"/><path d="M450,708L402,801L610,807Z" fill="#92bddf" stroke="#92bddf" stroke-width="1.51"/><path d="M532,-245L419,-162L542,-86Z" fill="#dbe9f6" stroke="#dbe9f6" stroke-width="1.51"/><path d="M487,-12L466,130L561,136Z" fill="#d3e4f4" stroke="#d3e4f4" stroke-width="1.51"/><path d="M547,234L405,442L582,403Z" fill="#b2d1e9" stroke="#b2d1e9" stroke-width="1.51"/><path d="M405,442L461,519L582,403Z" fill="#a7cce7" stroke="#a7cce7" stroke-width="1.51"/><path d="M255,-177L419,-162L532,-245Z" fill="#e5eff9" stroke="#e5eff9" stroke-width="1.51"/><path d="M385,201L405,442L547,234Z" fill="#c1daee" stroke="#c1daee" stroke-width="1.51"/><path d="M466,130L547,234L561,136Z" fill="#cadff1" stroke="#cadff1" stroke-width="1.51"/><path d="M466,130L385,201L547,234Z" fill="#cde1f2" stroke="#cde1f2" stroke-width="1.51"/><path d="M482,1138L381,1311L548,1193Z" fill="#85add6" stroke="#85add6" stroke-width="1.51"/><path d="M402,801L454,1019L549,944Z" fill="#8eb9dc" stroke="#8eb9dc" stroke-width="1.51"/><path d="M419,-162L487,-12L542,-86Z" fill="#dae8f6" stroke="#dae8f6" stroke-width="1.51"/><path d="M270,871L275,969L402,801Z" fill="#9bc1e1" stroke="#9bc1e1" stroke-width="1.51"/><path d="M385,201L261,376L405,442Z" fill="#c2dbef" stroke="#c2dbef" stroke-width="1.51"/><path d="M276,511L252,690L450,708Z" fill="#a4c9e5" stroke="#a4c9e5" stroke-width="1.51"/><path d="M402,801L275,969L454,1019Z" fill="#97bedf" stroke="#97bedf" stroke-width="1.51"/><path d="M276,511L450,708L461,519Z" fill="#a3c9e5" stroke="#a3c9e5" stroke-width="1.51"/><path d="M454,1019L270,1084L482,1138Z" fill="#90b6db" stroke="#90b6db" stroke-width="1.51"/><path d="M270,1084L381,1311L482,1138Z" fill="#90b3da" stroke="#90b3da" stroke-width="1.51"/><path d="M286,-45L466,130L487,-12Z" fill="#ddeaf7" stroke="#ddeaf7" stroke-width="1.51"/><path d="M419,-162L286,-45L487,-12Z" fill="#e1edf8" stroke="#e1edf8" stroke-width="1.51"/><path d="M286,-45L257,139L466,130Z" fill="#e0ecf7" stroke="#e0ecf7" stroke-width="1.51"/><path d="M307,208L261,376L385,201Z" fill="#cee1f2" stroke="#cee1f2" stroke-width="1.51"/><path d="M257,139L385,201L466,130Z" fill="#d9e8f6" stroke="#d9e8f6" stroke-width="1.51"/><path d="M405,442L276,511L461,519Z" fill="#accfe8" stroke="#accfe8" stroke-width="1.51"/><path d="M275,969L270,1084L454,1019Z" fill="#96bbdd" stroke="#96bbdd" stroke-width="1.51"/><path d="M252,690L402,801L450,708Z" fill="#9fc5e3" stroke="#9fc5e3" stroke-width="1.51"/><path d="M270,1084L300,1344L381,1311Z" fill="#90b1d9" stroke="#90b1d9" stroke-width="1.51"/><path d="M257,139L307,208L385,201Z" fill="#d8e7f6" stroke="#d8e7f6" stroke-width="1.51"/><path d="M255,-177L286,-45L419,-162Z" fill="#e7f0fa" stroke="#e7f0fa" stroke-width="1.51"/><path d="M252,690L270,871L402,801Z" fill="#9fc4e2" stroke="#9fc4e2" stroke-width="1.51"/><path d="M261,376L276,511L405,442Z" fill="#b6d4eb" stroke="#b6d4eb" stroke-width="1.51"/><path d="M270,1084L181,1315L300,1344Z" fill="#92b2d9" stroke="#92b2d9" stroke-width="1.51"/><path d="M177,1110L181,1315L270,1084Z" fill="#95b6db" stroke="#95b6db" stroke-width="1.51"/><path d="M252,690L170,882L270,871Z" fill="#9fc4e2" stroke="#9fc4e2" stroke-width="1.51"/><path d="M181,57L257,139L286,-45Z" fill="#e3eef8" stroke="#e3eef8" stroke-width="1.51"/><path d="M183,242L261,376L307,208Z" fill="#cde1f2" stroke="#cde1f2" stroke-width="1.51"/><path d="M257,139L183,242L307,208Z" fill="#d8e7f5" stroke="#d8e7f5" stroke-width="1.51"/><path d="M98,485L252,690L276,511Z" fill="#aacde7" stroke="#aacde7" stroke-width="1.51"/><path d="M-207,-249L-23,-190L83,-208Z" fill="#f1f7fd" stroke="#f1f7fd" stroke-width="1.51"/><path d="M99,724L170,882L252,690Z" fill="#a3c7e3" stroke="#a3c7e3" stroke-width="1.51"/><path d="M183,242L151,369L261,376Z" fill="#c7def0" stroke="#c7def0" stroke-width="1.51"/><path d="M270,871L170,882L275,969Z" fill="#9cc0e1" stroke="#9cc0e1" stroke-width="1.51"/><path d="M177,1110L270,1084L275,969Z" fill="#97bbde" stroke="#97bbde" stroke-width="1.51"/><path d="M139,953L177,1110L275,969Z" fill="#99bddf" stroke="#99bddf" stroke-width="1.51"/><path d="M261,376L151,369L276,511Z" fill="#bad7ed" stroke="#bad7ed" stroke-width="1.51"/><path d="M151,369L98,485L276,511Z" fill="#b7d5eb" stroke="#b7d5eb" stroke-width="1.51"/><path d="M255,-177L82,-70L286,-45Z" fill="#e8f1fa" stroke="#e8f1fa" stroke-width="1.51"/><path d="M82,-70L181,57L286,-45Z" fill="#e6f0f9" stroke="#e6f0f9" stroke-width="1.51"/><path d="M98,485L99,724L252,690Z" fill="#a9cce6" stroke="#a9cce6" stroke-width="1.51"/><path d="M170,882L139,953L275,969Z" fill="#9cc0e0" stroke="#9cc0e0" stroke-width="1.51"/><path d="M83,-208L82,-70L255,-177Z" fill="#ebf3fb" stroke="#ebf3fb" stroke-width="1.51"/><path d="M181,57L183,242L257,139Z" fill="#dfebf8" stroke="#dfebf8" stroke-width="1.51"/><path d="M98,485L-49,538L99,724Z" fill="#adcee8" stroke="#adcee8" stroke-width="1.51"/><path d="M99,724L15,840L170,882Z" fill="#a2c6e3" stroke="#a2c6e3" stroke-width="1.51"/><path d="M139,953L14,1129L177,1110Z" fill="#99bcde" stroke="#99bcde" stroke-width="1.51"/><path d="M82,-70L27,72L181,57Z" fill="#e7f0fa" stroke="#e7f0fa" stroke-width="1.51"/><path d="M177,1110L14,1129L181,1315Z" fill="#96b6db" stroke="#96b6db" stroke-width="1.51"/><path d="M14,1129L-2,1324L181,1315Z" fill="#95b4da" stroke="#95b4da" stroke-width="1.51"/><path d="M8,289L151,369L183,242Z" fill="#cde1f2" stroke="#cde1f2" stroke-width="1.51"/><path d="M181,57L27,72L183,242Z" fill="#e3eef9" stroke="#e3eef9" stroke-width="1.51"/><path d="M27,72L8,289L183,242Z" fill="#dbe9f6" stroke="#dbe9f6" stroke-width="1.51"/><path d="M-49,538L-37,700L99,724Z" fill="#abcce7" stroke="#abcce7" stroke-width="1.51"/><path d="M15,840L139,953L170,882Z" fill="#a0c3e1" stroke="#a0c3e1" stroke-width="1.51"/><path d="M-36,940L14,1129L139,953Z" fill="#9dc0e0" stroke="#9dc0e0" stroke-width="1.51"/><path d="M18,442L98,485L151,369Z" fill="#bcd8ed" stroke="#bcd8ed" stroke-width="1.51"/><path d="M8,289L18,442L151,369Z" fill="#c5ddf0" stroke="#c5ddf0" stroke-width="1.51"/><path d="M15,840L-36,940L139,953Z" fill="#a0c3e2" stroke="#a0c3e2" stroke-width="1.51"/><path d="M29,-66L27,72L82,-70Z" fill="#e9f2fb" stroke="#e9f2fb" stroke-width="1.51"/><path d="M29,-66L82,-70L83,-208Z" fill="#ecf4fb" stroke="#ecf4fb" stroke-width="1.51"/><path d="M-23,-190L29,-66L83,-208Z" fill="#eef5fc" stroke="#eef5fc" stroke-width="1.51"/><path d="M18,442L-49,538L98,485Z" fill="#b6d4eb" stroke="#b6d4eb" stroke-width="1.51"/><path d="M-37,700L15,840L99,724Z" fill="#a7c9e5" stroke="#a7c9e5" stroke-width="1.51"/><path d="M-139,213L8,289L27,72Z" fill="#deebf7" stroke="#deebf7" stroke-width="1.51"/><path d="M-49,538L-124,581L-37,700Z" fill="#aecfe8" stroke="#aecfe8" stroke-width="1.51"/><path d="M-36,940L-209,1025L14,1129Z" fill="#9fc0e0" stroke="#9fc0e0" stroke-width="1.51"/><path d="M-209,1025L-190,1137L14,1129Z" fill="#9ebddf" stroke="#9ebddf" stroke-width="1.51"/><path d="M-190,1137L-2,1324L14,1129Z" fill="#9ab8dd" stroke="#9ab8dd" stroke-width="1.51"/><path d="M-37,700L-157,798L15,840Z" fill="#a7c9e5" stroke="#a7c9e5" stroke-width="1.51"/><path d="M8,289L-210,406L18,442Z" fill="#c6ddf0" stroke="#c6ddf0" stroke-width="1.51"/><path d="M-144,-10L-133,110L27,72Z" fill="#e9f2fa" stroke="#e9f2fa" stroke-width="1.51"/><path d="M-133,110L-139,213L27,72Z" fill="#e7f0fa" stroke="#e7f0fa" stroke-width="1.51"/><path d="M-144,-10L27,72L29,-66Z" fill="#eaf2fb" stroke="#eaf2fb" stroke-width="1.51"/><path d="M-23,-190L-144,-10L29,-66Z" fill="#edf4fc" stroke="#edf4fc" stroke-width="1.51"/><path d="M-190,1137L-218,1314L-2,1324Z" fill="#9ab6dc" stroke="#9ab6dc" stroke-width="1.51"/><path d="M-210,406L-49,538L18,442Z" fill="#bbd8ed" stroke="#bbd8ed" stroke-width="1.51"/><path d="M-139,213L-210,406L8,289Z" fill="#d1e4f3" stroke="#d1e4f3" stroke-width="1.51"/><path d="M-157,798L-36,940L15,840Z" fill="#a4c6e4" stroke="#a4c6e4" stroke-width="1.51"/><path d="M-207,-249L-144,-10L-23,-190Z" fill="#f1f7fd" stroke="#f1f7fd" stroke-width="1.51"/><path d="M-210,406L-124,581L-49,538Z" fill="#b6d5ec" stroke="#b6d5ec" stroke-width="1.51"/><path d="M-124,581L-210,741L-37,700Z" fill="#adcee7" stroke="#adcee7" stroke-width="1.51"/><path d="M-210,741L-157,798L-37,700Z" fill="#abcbe6" stroke="#abcbe6" stroke-width="1.51"/><path d="M-157,798L-209,1025L-36,940Z" fill="#a4c5e3" stroke="#a4c5e3" stroke-width="1.51"/><path d="M-210,406L-210,741L-124,581Z" fill="#b2d2ea" stroke="#b2d2ea" stroke-width="1.51"/><path d="M-210,406L-139,213L-133,110Z" fill="#dae9f6" stroke="#dae9f6" stroke-width="1.51"/><path d="M-144,-10L-210,406L-133,110Z" fill="#e4eff9" stroke="#e4eff9" stroke-width="1.51"/><path d="M-210,741L-209,1025L-157,798Z" fill="#a7c8e4" stroke="#a7c8e4" stroke-width="1.51"/><path d="M-207,-249L-210,406L-144,-10Z" fill="#ecf4fc" stroke="#ecf4fc" stroke-width="1.51"/><path d="M-209,1025L-218,1314L-190,1137Z" fill="#9ebbdf" stroke="#9ebbdf" stroke-width="1.51"/><path d="M-210,741L-218,1314L-209,1025Z" fill="#a2c1e1" stroke="#a2c1e1" stroke-width="1.51"/></svg>