<svg xmlns="http://www.w3.org/2000/svg" xmlns:xlink="http://www.w3.org/1999/xlink" version="1.1" x="0px" y="0px" viewBox="0 0 100 100" style="enable-background:new 0 0 100 100;" xml:space="preserve">
    <style type="text/css">
	.st0{
        fill-rule:evenodd;
        clip-rule:evenodd;
        fill:#FFFFFF;
        }

</style><g><path class="st0" d="M59,56.2c0,3.3-2.7,5.8-6,5.8h-6c-3.3,0-6-2.5-6-5.8V53H2v30c0,3.3,2.7,6,6,6h84c3.3,0,6-2.7,6-6V53H59V56.2z"/><path class="st0" d="M53,59c1.7,0,3-1.2,3-2.8v-3.1v-2.9c0-1.7-1.3-3.2-3-3.2h-6c-1.7,0-3,1.5-3,3.2v2.9v3.1c0,1.7,1.3,2.8,3,2.8   H53z"/><path class="st0" d="M92,23H68v-3c0-6.6-5.4-12-12-12H41c-6.6,0-12,5.4-12,12v3H8c-3.3,0-6,2.7-6,6v21h39c0-3,2.7-6,6-6h6   c3.3,0,6,3,6,6h39V29C98,25.7,95.3,23,92,23z M59,23H38v-3c0-1.7,1.3-3,3-3h15c1.7,0,3,1.3,3,3V23z"/></g>
</svg>